# xmcd
#
# Track frame offsets: 
#        150
#        15712
#        28657
#        48967
#        67597
#        87157
#        102970
#        124137
#        143852
#        160912
#        177755
#        192782
#        213880
#        230657
#        249017
#        262012
#
# Disc length: 3630 seconds
#
# Revision: 0
# Processed by: cddbd v1.5.2PL0 Copyright (c) Steve Scherf et al.
# Submitted via: ExactAudioCopy v0.95b4
#
DISCID=cc0e2c10
DTITLE=Various Artist - Tribute To Bo Diddley
DYEAR=2008
DGENRE=Blues
TTITLE0=Taj Mahal - Bo Diddley
TTITLE1=Joe Louis Walker - Who Do You Love
TTITLE2=Walter Trout - Road Runner
TTITLE3=Tommy Castro - I Can Tell
TTITLE4=Eric Sardinas - Ride On Josephine
TTITLE5=Corey Harris - Crackin' Up
TTITLE6=Coco Montoya - Pills
TTITLE7=Sugar Blue - Mona (I Need You Baby)
TTITLE8=Otis Rush - I'm A Man
TTITLE9=Guitar Shorty - Don't Let Go (Hold On To What You've Got)
TTITLE10=Charlie Musselwhite - Hey Bo Diddley
TTITLE11=Kris Wiley - You Don't Love Me
TTITLE12=Son Seals - My Story
TTITLE13=Michael Burks - You Can't Judge A Book By The Cover
TTITLE14=Roy Gaines - Before You Accuse Me
TTITLE15=Bo Diddley with Mainsqueeze - Don't Know Where I've Been (Bon
TTITLE15=us Track)
EXTD=
EXTT0=
EXTT1=
EXTT2=
EXTT3=
EXTT4=
EXTT5=
EXTT6=
EXTT7=
EXTT8=
EXTT9=
EXTT10=
EXTT11=
EXTT12=
EXTT13=
EXTT14=
EXTT15=
PLAYORDER=
